/* XPM */
static char *_a7547b327c14494d818ba8ff25ee92fvduWGNaFtkomDlWD[] = {
/* columns rows colors chars-per-pixel */
"64 64 164 2 ",
"   c #2F1F1F",
".  c #311F1F",
"X  c #2E201F",
"o  c #31221F",
"O  c #322222",
"+  c #382425",
"@  c #373634",
"#  c #393534",
"$  c #282A29",
"%  c #452323",
"&  c #4A2625",
"*  c #4D2826",
"=  c #4F2728",
"-  c #532827",
";  c #592927",
":  c #53272A",
">  c #542929",
",  c #5C2A2B",
"<  c #622D2D",
"1  c #6B2E2E",
"2  c #752F2A",
"3  c #64312E",
"4  c #6B312F",
"5  c #72312E",
"6  c #7B342D",
"7  c #74382E",
"8  c #652F30",
"9  c #692E31",
"0  c #633131",
"q  c #6D3131",
"w  c #6F3835",
"e  c #743434",
"r  c #7A3633",
"t  c #753A36",
"y  c #7D3A36",
"u  c #773738",
"i  c #783638",
"p  c #773B39",
"a  c #7A3939",
"s  c #37554B",
"d  c #3C574E",
"f  c #2D6558",
"g  c #1B7664",
"h  c #1D7E67",
"j  c #147F6B",
"k  c #1A7D68",
"l  c #207764",
"z  c #357260",
"x  c #397E6C",
"c  c #494845",
"v  c #504F4D",
"b  c #435348",
"n  c #4C584E",
"m  c #53514D",
"M  c #55594B",
"N  c #465D51",
"B  c #426655",
"V  c #546956",
"C  c #44715C",
"Z  c #686850",
"A  c #6D6966",
"S  c #6F6E6B",
"D  c #706F6D",
"F  c #73726E",
"G  c #737270",
"H  c #83352F",
"J  c #9B3E2F",
"K  c #833630",
"L  c #843B36",
"P  c #8B3C35",
"I  c #833C39",
"U  c #8E3F38",
"Y  c #933E34",
"T  c #9C3F30",
"R  c #923F3A",
"E  c #814037",
"W  c #8E4036",
"Q  c #834038",
"!  c #8F4039",
"~  c #944236",
"^  c #9A4536",
"/  c #9F4A36",
"(  c #914139",
")  c #994638",
"_  c #92483B",
"`  c #A24535",
"'  c #A64B37",
"]  c #A84C37",
"[  c #A44738",
"{  c #A64B38",
"}  c #A64B39",
"|  c #A74A39",
" . c #A5493A",
".. c #A44B39",
"X. c #A54D39",
"o. c #A74C39",
"O. c #A54C3A",
"+. c #A74C3A",
"@. c #A74B3C",
"#. c #A64B39",
"$. c #A84B3A",
"%. c #A94A39",
"&. c #A84D3A",
"*. c #A84B3A",
"=. c #A7523B",
"-. c #A8543C",
";. c #BF5845",
":. c #BF5847",
">. c #BF5A45",
",. c #BE6047",
"<. c #826A66",
"1. c #846F6A",
"2. c #86726D",
"3. c #88746F",
"4. c #897671",
"5. c #8C7B76",
"6. c #8E7F7A",
"7. c #C05646",
"8. c #C05946",
"9. c #13806B",
"0. c #138069",
"q. c #14816A",
"w. c #15826B",
"e. c #12826C",
"r. c #13806D",
"t. c #14816C",
"y. c #15806C",
"u. c #15826D",
"i. c #14816E",
"p. c #15826E",
"a. c #14816C",
"s. c #1E8570",
"d. c #3C8975",
"f. c #3C8D7A",
"g. c #8E817B",
"h. c #90837E",
"j. c #908581",
"k. c #928982",
"l. c #938B84",
"z. c #958E88",
"x. c #96938C",
"c. c #99968F",
"v. c #99968D",
"b. c #99958F",
"n. c #9A9790",
"m. c #9A9791",
"M. c #B29287",
"N. c #B69E92",
"B. c #B7A493",
"V. c #B7A295",
"C. c #B8A296",
"Z. c #B7A599",
"A. c #B9A69A",
"S. c #BAAB9D",
"D. c #BBAFA3",
"F. c #BBAEA1",
"G. c #BCB3A5",
"H. c #BEB6A9",
"J. c #BFB9AD",
"K. c #BEB8AC",
"L. c #BFB9AD",
"P. c #C0B6AA",
"I. c #C0BAAE",
"U. c #C0BAAE",
/* pixels */
"c.< < i u u u u u e e y y y y y a a a a i e e u e u u u u a J.J.J.U.u u u i u u u u u u u u u u u u e u u u e a a a I I I I J.c.",
"< < < o.o.o.&.o.o.$.( R ( ( ( i i i i i i i a y a ( ( ( i ( ( J.U.u ;.;.;.;.u u a i e u u u u u u u u u u o.y I o.I I I u u < c.",
"< o.o.o.o.o.o.o.o.( o.o.( ......{ { o.o.o.o.o.o.( ( ( { ( ( i.i.i.9.] ] o.o.&.o.8.o.] o.o.o.$.o.] o.&.e o.] { { { ..I u u i 8 J.",
", o.o.o.o.o.o.{ o.o.o.o.o.( o.o.o.o.o.o.{ o.o.@.o.R &.$.o.i.i.i.q.q.i.a.i.o.o.o.o.o.o.{ ;...{ ..{ { o.o.o.@.o.I { ..I I I u 8 H.",
", { { { { { ( $.$.$.$.o.( o.( ( ( ( o.@.{ { ....{ ..{ { ( i.i.i.9.q.i.a.o.o.o.{ o.] o.o.o.o.{ { { ..I { &.o.{ { { { I I I a u G.",
", { { { ..U U U { { U { U U U U { ! ! { { { { ..........( i.i.i.i.i.h o.] L { { { o.{ o.{ { o...{ { L { { L $.{ ..{ ..{ I e e H.",
", { U U U U U U U U U U U U U U ! U U U U { { / ....e ! ! i.i.i.i.i.o.L o.L L o.&.L L o.L o.L L i...L L I L I I I L L L I [ I F.",
", ` U U [ U U U P U i.i.i.i.i.i.i.W U U U U U U U U e e e i.i.i.i.i.i...$.L $.L I L o.L L L a.i.i.a.i.a.I L L I I I L I L I L S.",
", P P P P P e P U e U U i.i.i.i.i.i.U U [ U U e U U e e e a.a.a.9.i.i.$.I I { I L L I L L i.i.i.i.i.i.i.L L L L L L L L K r L l.",
"> P P P P P e e e e e i.9.q.i.i.i.i.i.P e e e U e e e e e a.a.a.i.i.i.L L L L L L L L L i.i.i.i.i.i.i.i.L L y L r r ` r r r i l.",
": q L L L L P P q q e i.i.9.i.q.i.i.i.i.i.e e e e e e , i.i.9.q.i.i.q.e L e L L L K L q.i.i.i.i.q q i.i.i.q q 4 q r r 9 r 6 = l.",
": q L q q L q q q q a.a.i.L e e e i.q i.a.i.e e e e e > i.i.i.i.i.i.a.9.q q r q q q i.i.r r 9 q 9 9 9 i.i.1 < < < < 5 < 5 < 4.l.",
": q q q L L q q q q i.i.L q q q : : : q q i.q.q q q q q i.i.j i.i.q.q.q.r 9 9 1 b i.i.r r 1 < q.i.< = = i.i.= < , , , < , 1 < l.",
": q q L q q 4 1 q q i.i.: : i.9.i.9.- : : q i.i.q q e q a.i.i.i.q.i.q.q.i.5 1 q.i.i.< < < i.q.q.q.q.& & i.i.% , , , , , < , & l.",
"B.6.q q q : : : > g 9.: > i.i.q.a.q.9.q., , , i.i.i.i.9.q.i.i.i.i.i.i.a.i.i.q.q.< < < < i.i.i.i.i.i.O - q.i.+ : 9 q 9 q 9 = > 5.",
"c.c.c.n.c.c.J.J.J.i.i.U.U.9.i.i.q.9.q.q.i.c.c.J.i.i.i.q.i.9.q.i.i.i.i.i.i.i.c.c.c.c.i.i.i.a.i.i.i.i.i.J.i.i.J.J.J.U.J.J.@ @ c.c.",
"u u u u u < @ c c.a.q.u u u i.i i.u u i.i.i.i.u e u e u i.i.o.i.i.u i.i.u u u n.u i.i.i.e k i.i.a.i.o.{ n i.m e e u u u o.o.u u ",
"&.o.&.e u u u @ c.i.i.;.;.i.i.o.q.i.&.o.o.i.a.i.o.$.o.o.o.o.{ o.i.{ ] i.o.L u i.i.i.o.i.o.q.i.i.$.i.q.o.o.i.i.&.o.o.o.;.$.o.o.o.",
"o.&.o.o.o.u u i n.9.i.o.o.i.i.o.i.i.o.&.i.i.o.q.i.a.o.o.o.&.o.o.] &.o.;.o.I 9.i.i.o.i.q.&.o.i.i.o.a.i.o.o.i.9.] o.o.o.;.;.o.{ o.",
"o.{ o.&.$.$.e i c.i.i.8.;.i.i.o.i.i.o.o.i.a.] i.q.9.i.i.a.i.i.o.i.i.i.i.q.i.i.F i.o.q.i.;.o.q.q.o.i.i.o.o.i.i.o.] o.o.o.o.o.o.o.",
"{ U U U { { e e H.i.i.{ ' i.i.$.i.i.{ L q.i.o.i.i.I i.i.i.i.I I I i.i.i.i.i.u i.q.o.i.a.{ $.i.a.&.i.9.( U i.i.o.$.$.$.$.$.&.{ ' ",
"U U U U U { { e P.i.i.{ k q.i.{ i.i.L L i.i.L i.i.P P P P I I I I P I I I L L i.q.o.i.i.$.{ i.i.$.q.i.{ { a.i.{ o.' { { { $.{ $.",
"U U U U U U ' e H.i.i.{ i.q.h { i.i.L L i.L L i.i.L i.P L L L L P P L L L i.L i.q.$.9.i.$.{ i.i.! i.i.U U a.i.....[ ....[ ..' U ",
"P U P U U U [ e i.i.a.[ i.i.L [ i.i.L i.i.L L a.i.L i.L L L L e L L ' { ' i.L i.i.' i.a.U U i.i.U i.i.i.U i.i.^ U U U ` ` U P P ",
"P P P P P P P e i.a.` ` i.i.L ` q.q.L i.i.L e q.i.i.i.e e e e e L L L [ K i.q i.i.` q.q.P P i.9.P B i.i.P a.i.i.P P P P P P q P ",
"P q P P L L P q i.i.y ` q.i.r ` i.i.r i.q.r r i.i.i.i.q r q q q r r r ` r a.q i.i.L M q.L P i.i.L L i.i.L P i.i.P P P P P P 9 L ",
"H H H K K K < q i.i.6 r i.q.r r q.i.1 i.i.r 1 i.i.i.i.1 1 1 4 4 6 6 r r r i.i.i.a.K H q.i.< i.9.K K i.9.H < i.i.K H < H K K < 9 ",
"< 6 6 6 r 6 , < i.i.< < q.q.< f i.i.< i.9.< < i.i.9.f < < < < < < < 5 5 < 9.i.i.i.< < q.i.< i.i.< < i.q.< < q.i.6 6 6 < < < , , ",
", 6 6 6 6 6 , , q.a.< < i.i.% i.i.q.< i.i., , i.i.i., 5 5 5 , , , , , 5 , i.i.q.i., , i.i., i.i., , a.i., , q.q., , , 6 6 6 , , ",
", 2 2 2 2 2 , , q.q., % i.i.% q.i.s % a.i., , q.9.i.> > > > > > > > > > > i.i.i.i.> > i.i.> i.i.a.% i.i.> > i.i.> > 2 > 2 > > > ",
"< K K K 8 < , M.q.q.$ % i.i., i.q.% , i.i., , i.a.i.< < < < 9 4 q q q q 9 i.i.i.i.e e i.i., q.q.i.= i.i.% , q.i., , > > , , , , ",
"H.c.c.c.c.c.F F q.i.c.c.q.i.c.i.q.H.H.i.i.G.f.i.i.i.K.J.J.J.J.J.J.J.J.J.J.q.i.i.i.c.U.i.i.J.F i.9.J.i.i.J.J.i.i.J.U.J.J.J.J.J.H.",
"u i u u u u u q.i.u e i.i.i.u i.i.u u i.i.) 9.q.i.q.q.t t t t t t t t t t i.i.i.i.t p q.q.t t i.i.t i.i.9.c F i.9.u u u u u u u ",
"o.o.o.o.;.;.;.i.i.o.&.9.i.o.o.i.i.u u i.i.) q.i.i.q.i.t t t t t -.-.t t t i.i.i.i.i.>.i.a.-.-.i.i.-.-.i.i.0 c i.i.u o.&.e $.o.$.",
"o.o.o.o.o.$.o.i.a.{ o.i.i.o.o.i.i.o.o.q.i.) i.i.s.i.i.-.-.-.-.-.a.=.-.-.t i.-.i.i.i.-.q.i.-.-.i.i.-.-.i.i.-.0 i.i.o.u o.o.o.;.;.",
"o.o.&.{ &.o.o.9.i.o.o.a.q.o.o.i.i.u &.q.i.) i.i.J.t i.Q -.-.i.i.q.i.i.-.i.i.-.Z q.i.-.q.q.>.-.i.i.E E a.9.-.3 i.i.e o.o.o.o.;.;.",
"{ o.o.o.o.o.] i.i.] ] q.i.) ) i.q.u o.i.i.o.9.i.J.t i.i.i.i.i.-.-.i.i.>.9.i.-.-.q.a.>.q.i.,.=.i.i.-.E q.i.-.t i.i.o.o.o.o.;.] $.",
"o.) o.o.$.o.o.i.i.o.) i.i.) ) i.a.o.$.i.i.o.i.i.J.t i.i.i.i.q.Q -.-.i.i.i.i.=.=.i.i.-.i.i.-.-.i.9.E E i.q.t t i.i.] &.$.7.{ { ^ ",
") o.$.) o.) ) i.i.) ) q.a.) ) i.i.o.i.i.i.o.i.i.c p i.a.i.I E -.-.-.-.-.i.i.E E i.i.E i.i.i.-.a.i.E E i.i.t t i.i.{ { { 7.{ { { ",
") ) ) o.) o.) 9.i.I ) q.i.) ) i.i.) i.i.k o.9.i.@ E -.E i.-.-.E E E E -.i.I E E i.i.E E i.i.I i.i.=.=.a.i.t t c.i.{ { { { [ ~ ~ ",
"I ) ) ) ) ) ) i.) ) I i.i.) ) i.i.) q.q.) ) i.i.F E -.-.q.I Q E E E =.E q.I I E a.i.t Q i.a.I 9.q.y y 9.q.e t c.i.i.[ ^ r y y ~ ",
"y L ^ ) ~ ) a.i.I ) L i.i.) I i.q.) q.q.) ) 9.i F E Q =.i.I I I Q Q Q E 9.I y y y y t I i.i.y 9.q.i.y 9.a.i.t H.i.i.` ~ r ` r ` ",
"y y y y ~ L q.9.I I i.i.i.I z q.q.I i.a.~ ) ) e F Q Q E i.a.q.q.i.i.i.i.q.y y y y y t y q.i.a a.i.q.a X.i.i.w H.i.i.` r r r r r ",
"r r y y y y 9.q.e e i.i.N L i.i.l ^ i.i.~ ~ ~ e S t y y i.i.q.q.i.a.9.q.9.q.X.y e e y w w 9.w q a.i.y a i.q.w G.a.i.` 5 e 9 e e ",
"e e r r i r i.a.e e i.q.e y i.i.y ~ i i r r ~ e A e i.i.i.i.i.q.i.i.y i.9.i.i.y q r r q q 7 4 e i.9.e r i.i.> F.i.i.1 5 1 < e 5 ",
"5 5 5 e e 5 i.i.9 : i.i.q q i.i.e e q e e q q : 6.i.i.i.i.i.3 4 0 3 9.i.i.i.i.i.3 3 3 3 = 3 3 5 3 i.3 3 i.i.: l.< i.< < < < 5 5 ",
"1 1 1 1 1 1 i.i.& & i.i.< < i.< < < < < < < = < x i.i.i.i.i.4 < < < < i.i., < i.i., , , & & , , 3 i., , a.i.3.l., q.q.< & , 1 1 ",
"> - < - > i.i.m m m i.i.  X % % % % % % % % % 1.i.9.% % % 9.i.& & % % % % i.% % i.<.<.<.<.<.% ; ; ; ; , O i.2.l.2.q.q.% % , , , ",
"G.G.G.S.S.i.i.l.l.h.a.5.6.h.l.l.l.S.S.S.S.S.S.i.i.i.S.S.F.G.H.i.i.H.H.H.H.H.i.H.9.i.x.z.l.l.l.l.A G.D H.H.x.x.c.x.j 9.H.x.H.H.H.",
"i e u u i i.i.< u o.o.o.o.o.o.u J.< < u u a u i.i.i.u u u i u u e i.q.i u u N i.i.i.u u i u u F F F @ < e u u u e e i.u u i u u ",
") ) ) ) ) i.u $.o.o.o.o.o.o.o.u J.< , u o.u o.i.i.9.q.i.o.o.o.u &.o.i.i.&.o.o.a.i.i.u I I I u F F # 8 i u e u u o.o.o.o.$.$.u ) ",
") ) ) ) o.) o.) o.o.o.] ;.] o.u J.< u o.{ o.$.q.i.o.$.i.i.i.$.o.&.o.o.&.i.o.o.o.q.i.&.o.I I I F G i u o.&.o.o.o.$.$.{ ) { { { { ",
"o.o.o.o._ o.o.o.o.o.) o.o.&.o.u J.< e o.o.o.I i.C o.I a.{ { i.i.o.o.o.$.o.i.I i.i.a.$.$.o.$.I F J.i o.] $.$.7.{ ) { { { { { ' ' ",
"o.o.o.) o.) o.o.o.) o.) o.o.o.u c.u u u o.o.I i.] I i.o.o.o.j a.i.&.o.o.o.I i.i.I i.o.{ o.o.I c.c.e { { { { { ~ { $.~ ~ ~ [ ~ ` ",
"o.] o.) o.) ) ) &.) o.) ) ) o.c.c.u u u L o.I i.I B 9.I I I i.I i.i.I I I i.i.&.i.a.o.o.$.$.e e x.e { { { { [ ' ~ ( ~ ~ R R ~ ` ",
"$.o.o.) ) ) I I I ) ) ) ) ) o.u n.u u o.I I I i.i.i.o.I I a.I I I i.i.i.a.V I I i.a.' I { { { e x.e ' { [ ~ [ ~ R Y ~ Y Y ` ` ( ",
"{ I ) ) I I ) ) I ^ ) ^ ) ) ) u F e e I L I I I i.i.I I I i.I I I I i.I L I { i.9.y y y y ' [ e l.e ` ` ` [ Y Y ( r r Y ` Y ` ` ",
"y y y y ~ y y y L y ~ ~ ~ ~ ~ e S e y y L y y L i.i.y e y i.y L y i.y y y y 9.i.q.y r r r ` ` q h.q r e e Y e e P e P P 5 ^ ^ T ",
"y r y y y y y y ~ ~ ~ r ~ ~ ~ e A e y y y y r e e i.a.e q i.y i r i.q i i.a.r i.r e e e e ^ ^ : 6.1 e e P e 5 5 5 5 5 4 5 5 5 5 ",
"r q r r r r r r Y Y Y Y ( Y 4 q j.> r r r r r q r q j a.q i.q q i.i.q.9.e i.i.e e e 5 5 5 J < = 4.< 4 1 1 1 , 1 1 1 1 1 , 1 1 1 ",
"9 9 5 e ^ e 5 5 e e P P 9 1 1 9 g.: 9 5 e 9 9 9 < 1 < < i.i.d < i.i.i.q.i.i.4 1 , 1 1 1 , , , , 2., & , , , 1 1 J 1 1 , , , , , ",
"= < < < < < < 5 P P < < P < < < 5.= = < < < < < < < < < & < i.i.i.i.q., , , , 1 1 , , , , % % m <.% , , , , < , , , , , , % % % ",
"= & & & & & & & o O O & & & & 3.2.2.& & , , , , , , , % , , , , , , % . % % ; , ; > > % % % % v v % % & & & & & & & & % % % % % ",
"F.F.S.S.S.V.C.C.V.C.C.C.V.V.V.V.V.Z.Z.Z.S.F.S.S.S.S.S.S.S.S.S.Z.Z.Z.Z.Z.S.S.S.S.S.V.V.N.d.N.N.V.Z.Z.Z.C.C.V.C.C.V.C.C.V.S.Z.C.V."
};
