/* XPM */
static char *a944e03a06d44185bb55a424b599038aZFw2uUW0BsTJL2tr[] = {
/* columns rows colors chars-per-pixel */
"64 64 176 2 ",
"   c #010101",
".  c #060807",
"X  c #070709",
"o  c #070908",
"O  c #0B0B0B",
"+  c #110F10",
"@  c #121313",
"#  c #1E1212",
"$  c #171918",
"%  c #1B1B1B",
"&  c #2F1F1F",
"*  c #2E201F",
"=  c #232323",
"-  c #292927",
";  c #2A2A29",
":  c #332222",
">  c #382425",
",  c #353533",
"<  c #58231D",
"1  c #452323",
"2  c #4A2525",
"3  c #4C2827",
"4  c #4D2628",
"5  c #442D2B",
"6  c #4D2C2B",
"7  c #542827",
"8  c #592927",
"9  c #54272A",
"0  c #592728",
"q  c #542929",
"w  c #5C2A2B",
"e  c #52302E",
"r  c #513230",
"t  c #5D3532",
"y  c #632D2D",
"u  c #6B2E2E",
"i  c #752F2A",
"p  c #64312F",
"a  c #6B302F",
"s  c #72322E",
"d  c #7B342E",
"f  c #642F30",
"g  c #692E30",
"h  c #6C3131",
"j  c #613B32",
"k  c #6A3934",
"l  c #743434",
"z  c #7A3633",
"x  c #753A36",
"c  c #7E3A36",
"v  c #773738",
"b  c #793638",
"n  c #763B38",
"m  c #7A3939",
"M  c #494844",
"N  c gray31",
"B  c #504F4D",
"V  c #53524E",
"C  c #575654",
"Z  c #6A655F",
"A  c #6E6A67",
"S  c #6F6E6A",
"D  c #73726E",
"F  c #737270",
"G  c #82352F",
"H  c #833630",
"J  c #843C36",
"K  c #8B3C35",
"L  c #833C39",
"P  c #8D3F38",
"I  c #933E34",
"U  c #9B3E30",
"Y  c #913F3A",
"T  c #814037",
"R  c #834038",
"E  c #8F4039",
"W  c #824938",
"Q  c #904037",
"!  c #944236",
"~  c #9A4536",
"^  c #904039",
"/  c #92413A",
"(  c #954339",
")  c #994638",
"_  c #914D38",
"`  c #9A483A",
"'  c #A14536",
"]  c #A24435",
"[  c #A74C37",
"{  c #A54A37",
"}  c #A84C37",
"|  c #A84C37",
" . c #A44738",
".. c #A1473C",
"X. c #A44738",
"o. c #A14A39",
"O. c #A1493B",
"+. c #A34A3A",
"@. c #A34A39",
"#. c #A44B39",
"$. c #A64B38",
"%. c #A64B39",
"&. c #A74A39",
"*. c #A5493A",
"=. c #A6493A",
"-. c #A64938",
";. c #A74C39",
":. c #A54C3A",
">. c #A74C3A",
",. c #A64D3B",
"<. c #A44C38",
"1. c #A74B3C",
"2. c #A54C3C",
"3. c #A74C39",
"4. c #A84B3A",
"5. c #A84B39",
"6. c #A84D3A",
"7. c #A84B3A",
"8. c #A7533B",
"9. c #A8543C",
"0. c #BF5545",
"q. c #BF5845",
"w. c #BF5A46",
"e. c #BE6047",
"r. c #826B66",
"t. c #836E69",
"y. c #86726D",
"u. c #88746D",
"i. c #897671",
"p. c #8B7C77",
"a. c #8C7B76",
"s. c #8E7F7A",
"d. c #8E7F7A",
"f. c #C05646",
"g. c #C15946",
"h. c #C15945",
"j. c #C06048",
"k. c #8E817B",
"l. c #91847E",
"z. c #908581",
"x. c #918881",
"c. c #938B83",
"v. c #928982",
"b. c #938C86",
"n. c #938A83",
"m. c #958E88",
"M. c #97938D",
"N. c #99968F",
"B. c #99968D",
"V. c #99968F",
"C. c #9A9790",
"Z. c #999691",
"A. c #B29287",
"S. c #B59D91",
"D. c #B7A28F",
"F. c #B7A493",
"G. c #B7A295",
"H. c #B8A295",
"J. c #B7A399",
"K. c #B9A69A",
"L. c #BAAC9F",
"P. c #BAAB9D",
"I. c #BBAFA3",
"U. c #BBADA1",
"Y. c #BCB2A6",
"T. c #BBB5A7",
"R. c #BCB3A5",
"E. c #BDB7A9",
"W. c #BEB6A9",
"Q. c #BEB8AA",
"!. c #BDB9AD",
"~. c #BFB9AD",
"^. c #BEB8AC",
"/. c #BFB9AD",
"(. c #C0BAAE",
"). c #C0BAAE",
/* pixels */
"N.y y b v v v v v v v c c c c c c c m m b l b v l v v b v v (.~.~.(.v v v v v v v v v v l v l v v v v l v v b m m m L J J J ~.C.",
"y y y ;.;.;.6.;.;.;.^ Q ^ Y ^ b b b b b m b c c m ^ ^ ^ b ^ ^ ~.~.v g.q.q.q.b v v v v b v v v v v v v v v 4.c L ;.J J J v x f C.",
"y ;.;.;.;.;.;.;.[ Y ;.;.^ ..@.@.$.$.;.4.;.;.;.;.^ ^ Y $.^ ^ k = = = = = | [ ;.;.g.;.;.4.;.4.$.;.4.;.;.l ;.;.$.$.$.@.J v v b f ~.",
"w ;.;.;.;.;.;.$.;.6.$.;.;.^ ;.;.;.1.;.;.;.;.;.;.;.$ @ @ o .             .   . @ ;.;.;.$.q.@.$.@.$.2.;.;.;.;.;.J $.@.J J J v f Q.",
"w $.$.$.$.$.^ 4.4.4.4.;.^ ;.^ ^ ^ ^ ;.;.$.$.$ o .                               o 4.;.;.;.;.$.$.$.@.J $.;.;.$.$.$.$.L J J m v R.",
"w $.$.$.@.P P P $.$.P $.P P P P $.E E j .                                           O ;.;.$.6.@.$.$.J $.$.J $.$.@.$.@.$.L l l W.",
"w $.P P P P P P P P P P P P P P P o                                                     @ 6.J J J O.J J J J J J J J J J L  .J I.",
"w ' P P  .P P P P P P P P P l O                                                             t J J J J J J J J J L L J L J L J L.",
"w K K K K K l K K l P P P l o                                                                 J v l l L J J L J J J J J H z J c.",
"q K K K K K l l l l l K K O                                                                   O l l J l J J c c c z ' z z z b c.",
"q h J J J J K K l h l l =                                                                       h h h h h h h h h z z g z d 4 c.",
"q h J h h J h h h h h h X                                                                       = g g g 4 u g y y y s y s y i.c.",
"q h h h J J h h h h h t                                                                         o y 4 2 y 4 2 y w w w y w u y c.",
"q h h J h h u u h h q @                                                                         . 2 2 2 y 2 2 w w w w w y w 2 b.",
"F.s.h h h q q q q q q @                                       o @ $ % % $ @ o                   o > > q q q > q g h g h g 2 q p.",
"N.N.N.C.N.N.~.~.~.T.T.~.                                $ o                   =                 @ ~.~.(.~.~.~.Q.~.(.~.~., , N.N.",
"v v v v v y , M C.v v v O                           = v v ;.;.;.v v v J l v v                   $.;.;.;.l v v v l v v v ;.;.v v ",
"6.;.6.l v v v , N.l v g.g.                      = ;.;.;.4.;.;.;.6.;.[ J ;.J v                   ;.4.;.;.;.;.v [ ;.;.;.q.4.;.;.;.",
";.6.;.;.;.v v b N.l ;.$.;.$                   6.;.q.;.$.;.;.;.;.;.;.;.q.;.J v                   ;.;.;.;.4.;.;.;.;.;.;.q.q.;.$.;.",
";.$.;.6.4.4.l b N.v ;.q.q.;.o             o 6.6.;.;.;.;.$.;.;.$.;.;.;.;.q.;.P                 O $.^ ;.;.$.;.;.;.[ ;.;.;.;.;.;.;.",
"$.P P P $.$.l l Q.l   $.$.J =           o ;.;.;.;.J P P J J J P J J ;.;.6.J m                 = ;.;.;.Y ^ ;.;.4.4.4.4.4.4.6.$.$.",
"P P P P P $.$.l W.$.    P J $.O         J J P J J J K J J J J J J P J J J J J $         .   X 4.6.4.$.$.$.P $.$.;.$.$.$.$.$.$.4.",
"P P P P P P $.l T.$.$.    $.$.=       J J J J J J J b P J J J J J P J K J J J         O ` @ $.4.P P P P P P @.@.@.@.@.@.@.@.$.P ",
"K P K P P P  .l W.'  . .   .J $.      J J J J J J J J J J J J b J J $.$.$.$.o         $ P P P P P P P P P P ~ ~ P P P ' ' P K K ",
"K K K K K K K l T.h ' ' J ' J   o     l l H l J l l l l l l l l J J J  .J $           = K K K K K K K K K K K K K K K K K K h K ",
"K h K K J J K h R.h z ] ~ c z   O     h z z z h z h h l c h h h z z z ] @             = J J J J J J ] J J K J K K K K K K K g K ",
"G G G H H H y h L.g d z z d z   O     u u z u u g h a u u a a a z d z O               e H g H H H H H H H y G H H H y H H H g y ",
"y d d d z d y y b.s y y y y y   .     s y y y s y y y y y y y y w @ .                 5 y f y y y y y d y y d d d z d y y w w w ",
"w d d d d d w w , s y y y 1           w w w w w w y w s s s w O .                     6 w w w w w w w w w w w w w w w d d d w w ",
"w i i i i i w w , - w 1 1 w   q       8 w w w u q q q q q                           = q w q q 1 q 1 1 q q 9 q q = = i q i q q q ",
"y H H H y y w A.S ; ; 1 & &   +             % 5 w @                               % l l l w w w h 2 2 w 1 w w y   6 q q w w w q ",
"W.N.N.N.N.N.D D D D N.N.N.N.N.@                                                 @ N.Q.~.~.~.D ~.~.~.~.~.(.~.~.  . (.~.~.~.(.~.W.",
"v v v v v v m v v v v v v v l @                                               O n n n n n n n n n n n n n M O   @ v v v v v v v ",
";.;.4.$.g.g.q.q.q.;.4.;.;.;.;.    X                                         . n 9.9.w.w.9.9.8.9.9.9.8.x n p     = v [ 6.v ;.;.;.",
";.;.;.;.;.;.;.;.;.;.;.;.;.;.;.;.;.;.4.@                                 o . @ 8.w.9.9.w.e.9.9.8.9.9.9.9.9.    $ v 4.v ;.;.;.q.q.",
";.;.;.;.;.| $.;.;.$.4.4.4.;.;.;.;.v 6.@                             . _ 9.= 9.9.9.9.8.w.9.j.9.9.R R T @     @ N.v v ;.;.;.;.q.q.",
";.;.;.;.;.;.;.;.;.;.;.;.) ) ) ;.;.b @                             . 9.w.. o 9.9.9.9.w.9.9.w.9.9.9.W     o j n N.v 6.;.4.[ q.4.;.",
";.) [ ;.6.4.;.) ;.;.) ) ) ) ) ;.;.;.o .                         . 9.9.9.  $ 9.8.9.9.9.9.8.8.9.9..   O t n n n N.v ;.4.4.f.$.$.~ ",
") [ [ ) ;.~ ) ) ) ) ) ) ) ) ) ;.;.;.  O . . .                   9.9.9.9.  = R R 9.R R R R R @     $ R R n n n B.l $.$.4.0.$.$.$.",
") ) ) ;.) ;.) ) ~ L ) ) ) ) ) ) ) ~ ) ) ) ;.  .               = R R R o   @ R R R R R R R @     = 8.8.T L n n N.l $.$.$.$.$.! ! ",
"J ~ ) ) ) ) ) L ) ) L L L ~ ) ~ ) ) ~ ) )     O             % R R R 8.    . L L L T x R $   . n c c c c c l n N.l  . .' c c z ! ",
"c c ~ ~ ( ) L L L ) L ) ) ) J ) ~ ) )     .             O T L L L T         .     L n =     . c c [ c   c c l W.l l ' ! z ' z ] ",
"z c c c ( L L L L L L c L L ) L L L ( (   %           % L L T c c .         . =   c l .   .     = m       c l T.h l ' z z l z l ",
"z z c c c c c c l l l b b J J ( J ~ J c ! !       O t c c c c c           @         @   % h $ o           h h R.h ] ] s l g l l ",
"l z z z z z ' z l l l l l c c c c ! b b z z @   % l l m m m @.O         $ l   o = . @ $ h s h l . %       h q   D.] u l u y l l ",
"s l s l l s l l g q q g h h g h l s h l l l h 4 s.h a h h h %         O h p %     =     4 p p s = .       3     y U y y y y s s ",
"u u u u u u u w 2 2 2 y y y y y y y y y y y 2 y i.3 3 6 = o           6 y 5     $     = 3 2 w w w               w w w w 2 w u u ",
"q 7 y 7 7 q 0 V V V V & & & 1 1 1 1 1 1 1 1 1 t.t.t.@               o 1 1 .   . .   O % r.r.1 w w . O     #     y.w w 1 1 w w w ",
"R.R.R.L.P.b.b.c.c.l.p.a.k.l.c.c.c.P.P.P.L.L.P.c.P.%                 @ W.W.      . .   m.b.c.c.c.A . .   Z b.M.  M.M.M.W.M.T.W.W.",
"v l v v v v y y v ;.;.      ;.b ~.f y v v v v v v .                 % l v           O v v v v D D .         v   m v v v v v v v ",
") )             ;.;.  ;.4.    l ~.y f v ;.v ;.;.o                   % ;.6.    % ;.L v L L L v D C .       m     ;.;.;.;.4.4.l ~ ",
") )   ) ;.) 4.  ;.;.  ;.q.;.  v ~.y v 6.;.;.j                       ;.| ;.  % $.;.| ;.;.L L L D   o     K     ;.1.4.$.~ $.$.$.$.",
";.;.  ;.) $.;.  4.;.  ;.;.;.  v ~.y v ;.;.%                     ;.;.;.;.;.. J ;.L 4.;.;.[ ;.L F O       4.  Q $.~ $.$.$.$.$.] $.",
";.;.  ~ ;.) ;.;.[ )   ) ;.    v N.v v b O                 . ;.;.;.;.;.;.;.O L L L ;.;.;.;.;.L               $.( $.$.! ! ! ] ! ' ",
";.;.  ) [ ) ) ) ;.)             N.l v O           .   L L L L J L L L L O @ L ;.L ;.$.6.4.4.y             $.] $.! ! ! ! ! ! ! ' ",
";.;.  )         L )   ) ) ) ;.  N.v v o . @ r ;.;.L ;.L L J L L L L J L   % L L L L $.L $.$.        $.   .! ] ! ! ! ! I I ' ] Q ",
"$.L   )   L ~   L     ) ~ ~ ~   D l l L J L L L L L L L L L L L L L L =   L $.$.$.c c c c         l ]   ' ' I I Q z z I ] I ] ] ",
"c c   c ! c c   c   ! ! ! ! !   S l c c J c c J c l c l c c c c c c =     c c c b z z z z         h z   l I l l K l K K s ~ ~ U ",
"c c   c c c     !   ! c ! !     A l c c c c z l l h l l h ] z b z @     $ z b z z l l l l   ]   s.u l l K l s s s s s a s s s s ",
"z h           z Q             h z.9 z z z z z h l h h h h h h h o     @ l l y l l l s s s < y 2 i.y a u u u w u u u u u w u u u ",
"g g l l ~ l d l l l K K u u g y k.q g s l g g g g u g y u y = o   O y y y s a h w u u u w w w w y.w 2 w w w u u U u u w w w w w ",
"2 y y y u y y s K K y y K y y y a.3 3 y y y y y y y y y 2 y y w w w w w w w w u u w w w w 1 1 V r.1 w w w w y w w w w w w 1 1 1 ",
"2 2 2 2 2 2 2 2 : : : 2 2 2 2 u.y.y.2 2 w w w w w w w 1 w w w w w w 1 & 1 1 w w w 7 7 1 1 1 1 B N 1 1 2 2 2 2 2 2 2 2 1 1 1 1 1 ",
"R.I.L.P.K.F.H.H.G.F.H.H.G.G.G.G.F.K.K.K.P.U.L.P.P.P.P.P.P.P.P.K.K.K.K.P.P.P.P.P.P.G.G.S.S.S.G.G.K.K.K.H.J.G.H.H.G.J.H.F.P.K.J.G."
};
